<?xml version="1.0" encoding="UTF-8"?>
<!DOCTYPE svg PUBLIC "-//W3C//DTD SVG 1.1//EN" "http://www.w3.org/Graphics/SVG/1.1/DTD/svg11.dtd">
<svg version="1.2" width="279.4mm" height="215.9mm" viewBox="0 0 27940 21590" preserveAspectRatio="xMidYMid" fill-rule="evenodd" clip-path="url(#presentation_clip_path)" stroke-width="28.222" stroke-linejoin="round" xmlns="http://www.w3.org/2000/svg" xmlns:ooo="http://xml.openoffice.org/svg/export" xmlns:xlink="http://www.w3.org/1999/xlink" xml:space="preserve">
 <defs class="ClipPathGroup">
  <clipPath id="presentation_clip_path" clipPathUnits="userSpaceOnUse">
   <rect x="0" y="0" width="27940" height="21590"/>
  </clipPath>
 </defs>
 <defs class="TextShapeIndex">
  <g ooo:slide="id1" ooo:id-list="id3 id4 id5 id6 id7 id8 id9 id10 id11 id12 id13 id14 id15 id16 id17 id18 id19 id20 id21 id22 id23 id24 id25 id26 id27 id28 id29 id30 id31 id32 id33 id34 id35 id36 id37 id38 id39 id40 id41 id42 id43 id44 id45 id46 id47 id48 id49"/>
 </defs>
 <defs class="EmbeddedBulletChars">
  <g id="bullet-char-template(57356)" transform="scale(0.00048828125,-0.00048828125)">
   <path d="M 580,1141 L 1163,571 580,0 -4,571 580,1141 Z"/>
  </g>
  <g id="bullet-char-template(57354)" transform="scale(0.00048828125,-0.00048828125)">
   <path d="M 8,1128 L 1137,1128 1137,0 8,0 8,1128 Z"/>
  </g>
  <g id="bullet-char-template(10146)" transform="scale(0.00048828125,-0.00048828125)">
   <path d="M 174,0 L 602,739 174,1481 1456,739 174,0 Z M 1358,739 L 309,1346 659,739 1358,739 Z"/>
  </g>
  <g id="bullet-char-template(10132)" transform="scale(0.00048828125,-0.00048828125)">
   <path d="M 2015,739 L 1276,0 717,0 1260,543 174,543 174,936 1260,936 717,1481 1274,1481 2015,739 Z"/>
  </g>
  <g id="bullet-char-template(10007)" transform="scale(0.00048828125,-0.00048828125)">
   <path d="M 0,-2 C -7,14 -16,27 -25,37 L 356,567 C 262,823 215,952 215,954 215,979 228,992 255,992 264,992 276,990 289,987 310,991 331,999 354,1012 L 381,999 492,748 772,1049 836,1024 860,1049 C 881,1039 901,1025 922,1006 886,937 835,863 770,784 769,783 710,716 594,584 L 774,223 C 774,196 753,168 711,139 L 727,119 C 717,90 699,76 672,76 641,76 570,178 457,381 L 164,-76 C 142,-110 111,-127 72,-127 30,-127 9,-110 8,-76 1,-67 -2,-52 -2,-32 -2,-23 -1,-13 0,-2 Z"/>
  </g>
  <g id="bullet-char-template(10004)" transform="scale(0.00048828125,-0.00048828125)">
   <path d="M 285,-33 C 182,-33 111,30 74,156 52,228 41,333 41,471 41,549 55,616 82,672 116,743 169,778 240,778 293,778 328,747 346,684 L 369,508 C 377,444 397,411 428,410 L 1163,1116 C 1174,1127 1196,1133 1229,1133 1271,1133 1292,1118 1292,1087 L 1292,965 C 1292,929 1282,901 1262,881 L 442,47 C 390,-6 338,-33 285,-33 Z"/>
  </g>
  <g id="bullet-char-template(9679)" transform="scale(0.00048828125,-0.00048828125)">
   <path d="M 813,0 C 632,0 489,54 383,161 276,268 223,411 223,592 223,773 276,916 383,1023 489,1130 632,1184 813,1184 992,1184 1136,1130 1245,1023 1353,916 1407,772 1407,592 1407,412 1353,268 1245,161 1136,54 992,0 813,0 Z"/>
  </g>
  <g id="bullet-char-template(8226)" transform="scale(0.00048828125,-0.00048828125)">
   <path d="M 346,457 C 273,457 209,483 155,535 101,586 74,649 74,723 74,796 101,859 155,911 209,963 273,989 346,989 419,989 480,963 531,910 582,859 608,796 608,723 608,648 583,586 532,535 482,483 420,457 346,457 Z"/>
  </g>
  <g id="bullet-char-template(8211)" transform="scale(0.00048828125,-0.00048828125)">
   <path d="M -4,459 L 1135,459 1135,606 -4,606 -4,459 Z"/>
  </g>
 </defs>
 <defs class="TextEmbeddedBitmaps"/>
 <g>
  <g id="id2" class="Master_Slide">
   <g id="bg-id2" class="Background"/>
   <g id="bo-id2" class="BackgroundObjects"/>
  </g>
 </g>
 <g class="SlideGroup">
  <g>
   <g id="id1" class="Slide" clip-path="url(#presentation_clip_path)">
    <g class="Page">
     <g class="Group">
      <g class="com.sun.star.drawing.CustomShape">
       <g id="id3">
        <path fill="rgb(255,255,255)" stroke="none" d="M 2645,5185 L 2645,5185 2645,5174 2646,5163 2648,5152 2650,5141 2652,5130 2655,5120 2659,5109 2663,5099 2668,5089 2673,5079 2679,5070 2685,5061 2692,5052 2699,5044 2707,5036 2715,5028 2723,5021 2732,5014 2741,5008 2751,5002 2760,4997 2770,4992 2780,4988 2791,4984 2801,4981 2812,4979 2823,4977 2834,4975 2845,4974 2856,4974 17673,4974 17673,4974 17684,4974 17695,4975 17706,4977 17717,4979 17727,4981 17738,4985 17748,4988 17758,4993 17768,4997 17778,5003 17787,5008 17797,5015 17805,5021 17814,5029 17822,5036 17829,5044 17836,5053 17843,5061 17849,5070 17855,5080 17860,5089 17865,5099 17869,5110 17873,5120 17876,5131 17878,5141 17880,5152 17882,5163 17883,5174 17883,5185 17885,6032 17885,6032 17885,6043 17884,6054 17882,6065 17880,6076 17878,6086 17874,6097 17871,6107 17866,6117 17862,6127 17856,6137 17850,6146 17844,6156 17837,6164 17830,6173 17823,6181 17815,6188 17806,6195 17797,6202 17788,6208 17779,6214 17769,6219 17759,6224 17749,6228 17738,6232 17728,6235 17717,6237 17706,6239 17695,6241 17684,6242 17673,6242 2856,6244 2856,6244 2845,6244 2834,6243 2823,6241 2812,6239 2801,6237 2791,6234 2780,6230 2770,6226 2760,6221 2751,6216 2741,6210 2732,6204 2723,6197 2715,6190 2707,6182 2699,6174 2692,6165 2685,6157 2679,6147 2673,6138 2668,6128 2663,6118 2659,6108 2655,6098 2652,6087 2650,6076 2648,6065 2646,6054 2645,6043 2645,6032 2645,5185 Z M 2645,4974 L 2645,4974 Z M 17885,6244 L 17885,6244 Z"/>
        <path fill="none" stroke="rgb(0,0,0)" d="M 2645,5185 L 2645,5185 2645,5174 2646,5163 2648,5152 2650,5141 2652,5130 2655,5120 2659,5109 2663,5099 2668,5089 2673,5079 2679,5070 2685,5061 2692,5052 2699,5044 2707,5036 2715,5028 2723,5021 2732,5014 2741,5008 2751,5002 2760,4997 2770,4992 2780,4988 2791,4984 2801,4981 2812,4979 2823,4977 2834,4975 2845,4974 2856,4974 17673,4974 17673,4974 17684,4974 17695,4975 17706,4977 17717,4979 17727,4981 17738,4985 17748,4988 17758,4993 17768,4997 17778,5003 17787,5008 17797,5015 17805,5021 17814,5029 17822,5036 17829,5044 17836,5053 17843,5061 17849,5070 17855,5080 17860,5089 17865,5099 17869,5110 17873,5120 17876,5131 17878,5141 17880,5152 17882,5163 17883,5174 17883,5185 17885,6032 17885,6032 17885,6043 17884,6054 17882,6065 17880,6076 17878,6086 17874,6097 17871,6107 17866,6117 17862,6127 17856,6137 17850,6146 17844,6156 17837,6164 17830,6173 17823,6181 17815,6188 17806,6195 17797,6202 17788,6208 17779,6214 17769,6219 17759,6224 17749,6228 17738,6232 17728,6235 17717,6237 17706,6239 17695,6241 17684,6242 17673,6242 2856,6244 2856,6244 2845,6244 2834,6243 2823,6241 2812,6239 2801,6237 2791,6234 2780,6230 2770,6226 2760,6221 2751,6216 2741,6210 2732,6204 2723,6197 2715,6190 2707,6182 2699,6174 2692,6165 2685,6157 2679,6147 2673,6138 2668,6128 2663,6118 2659,6108 2655,6098 2652,6087 2650,6076 2648,6065 2646,6054 2645,6043 2645,6032 2645,5185 Z"/>
        <text class="TextShape"><tspan class="TextParagraph" font-family="Calibri, sans-serif" font-size="635px" font-weight="400"><tspan class="TextPosition" x="6859" y="5863"><tspan fill="rgb(0,0,0)" stroke="none">RelativeSizeComponent</tspan></tspan></tspan></text>
       </g>
      </g>
      <g class="com.sun.star.drawing.CustomShape">
       <g id="id4">
        <path fill="rgb(255,255,255)" stroke="none" d="M 18733,7937 L 18733,7937 18733,7926 18734,7915 18736,7904 18738,7893 18740,7882 18743,7872 18747,7861 18751,7851 18756,7841 18761,7831 18767,7822 18773,7813 18780,7804 18787,7796 18795,7788 18803,7780 18811,7773 18820,7766 18829,7760 18839,7754 18848,7749 18858,7744 18868,7740 18879,7736 18889,7733 18900,7731 18911,7729 18922,7727 18933,7726 18944,7726 21484,7726 21484,7726 21495,7726 21506,7727 21517,7729 21528,7731 21538,7733 21549,7737 21559,7740 21569,7745 21579,7749 21589,7755 21598,7760 21608,7767 21616,7773 21625,7781 21633,7788 21640,7796 21647,7805 21654,7813 21660,7822 21666,7832 21671,7841 21676,7851 21680,7862 21684,7872 21687,7883 21689,7893 21691,7904 21693,7915 21694,7926 21694,7937 21696,8784 21696,8784 21696,8795 21695,8806 21693,8817 21691,8828 21689,8838 21685,8849 21682,8859 21677,8869 21673,8879 21667,8889 21661,8898 21655,8908 21648,8916 21641,8925 21634,8933 21626,8940 21617,8947 21608,8954 21599,8960 21590,8966 21580,8971 21570,8976 21560,8980 21549,8984 21539,8987 21528,8989 21517,8991 21506,8993 21495,8994 21484,8994 18944,8996 18944,8996 18933,8996 18922,8995 18911,8993 18900,8991 18889,8989 18879,8986 18868,8982 18858,8978 18848,8973 18839,8968 18829,8962 18820,8956 18811,8949 18803,8942 18795,8934 18787,8926 18780,8917 18773,8909 18767,8899 18761,8890 18756,8880 18751,8870 18747,8860 18743,8850 18740,8839 18738,8828 18736,8817 18734,8806 18733,8795 18733,8784 18733,7937 Z M 18733,7726 L 18733,7726 Z M 21696,8996 L 21696,8996 Z"/>
        <path fill="none" stroke="rgb(79,129,189)" d="M 18733,7937 L 18733,7937 18733,7926 18734,7915 18736,7904 18738,7893 18740,7882 18743,7872 18747,7861 18751,7851 18756,7841 18761,7831 18767,7822 18773,7813 18780,7804 18787,7796 18795,7788 18803,7780 18811,7773 18820,7766 18829,7760 18839,7754 18848,7749 18858,7744 18868,7740 18879,7736 18889,7733 18900,7731 18911,7729 18922,7727 18933,7726 18944,7726 21484,7726 21484,7726 21495,7726 21506,7727 21517,7729 21528,7731 21538,7733 21549,7737 21559,7740 21569,7745 21579,7749 21589,7755 21598,7760 21608,7767 21616,7773 21625,7781 21633,7788 21640,7796 21647,7805 21654,7813 21660,7822 21666,7832 21671,7841 21676,7851 21680,7862 21684,7872 21687,7883 21689,7893 21691,7904 21693,7915 21694,7926 21694,7937 21696,8784 21696,8784 21696,8795 21695,8806 21693,8817 21691,8828 21689,8838 21685,8849 21682,8859 21677,8869 21673,8879 21667,8889 21661,8898 21655,8908 21648,8916 21641,8925 21634,8933 21626,8940 21617,8947 21608,8954 21599,8960 21590,8966 21580,8971 21570,8976 21560,8980 21549,8984 21539,8987 21528,8989 21517,8991 21506,8993 21495,8994 21484,8994 18944,8996 18944,8996 18933,8996 18922,8995 18911,8993 18900,8991 18889,8989 18879,8986 18868,8982 18858,8978 18848,8973 18839,8968 18829,8962 18820,8956 18811,8949 18803,8942 18795,8934 18787,8926 18780,8917 18773,8909 18767,8899 18761,8890 18756,8880 18751,8870 18747,8860 18743,8850 18740,8839 18738,8828 18736,8817 18734,8806 18733,8795 18733,8784 18733,7937 Z"/>
        <text class="TextShape"><tspan class="TextParagraph" font-family="Calibri, sans-serif" font-size="635px" font-weight="400"><tspan class="TextPosition" x="19543" y="8615"><tspan fill="rgb(0,0,0)" stroke="none">Data</tspan></tspan></tspan></text>
       </g>
      </g>
      <g class="com.sun.star.drawing.CustomShape">
       <g id="id5">
        <path fill="rgb(255,255,255)" stroke="none" d="M 6033,15557 L 6033,15557 6033,15546 6034,15535 6036,15524 6038,15513 6040,15502 6043,15492 6047,15481 6051,15471 6056,15461 6061,15451 6067,15442 6073,15433 6080,15424 6087,15416 6095,15408 6103,15400 6111,15393 6120,15386 6129,15380 6139,15374 6148,15369 6158,15364 6168,15360 6179,15356 6189,15353 6200,15351 6211,15349 6222,15347 6233,15346 6244,15346 15134,15346 15134,15346 15145,15346 15156,15347 15167,15349 15178,15351 15188,15353 15199,15357 15209,15360 15219,15365 15229,15369 15239,15375 15248,15380 15258,15387 15266,15393 15275,15401 15283,15408 15290,15416 15297,15425 15304,15433 15310,15442 15316,15452 15321,15461 15326,15471 15330,15482 15334,15492 15337,15503 15339,15513 15341,15524 15343,15535 15344,15546 15344,15557 15346,16404 15346,16404 15346,16415 15345,16426 15343,16437 15341,16448 15339,16458 15335,16469 15332,16479 15327,16489 15323,16499 15317,16509 15311,16518 15305,16528 15298,16536 15291,16545 15284,16553 15276,16560 15267,16567 15258,16574 15249,16580 15240,16586 15230,16591 15220,16596 15210,16600 15199,16604 15189,16607 15178,16609 15167,16611 15156,16613 15145,16614 15134,16614 6244,16616 6244,16616 6233,16616 6222,16615 6211,16613 6200,16611 6189,16609 6179,16606 6168,16602 6158,16598 6148,16593 6139,16588 6129,16582 6120,16576 6111,16569 6103,16562 6095,16554 6087,16546 6080,16537 6073,16529 6067,16519 6061,16510 6056,16500 6051,16490 6047,16480 6043,16470 6040,16459 6038,16448 6036,16437 6034,16426 6033,16415 6033,16404 6033,15557 Z M 6033,15346 L 6033,15346 Z M 15346,16616 L 15346,16616 Z"/>
        <path fill="none" stroke="rgb(247,150,70)" d="M 6033,15557 L 6033,15557 6033,15546 6034,15535 6036,15524 6038,15513 6040,15502 6043,15492 6047,15481 6051,15471 6056,15461 6061,15451 6067,15442 6073,15433 6080,15424 6087,15416 6095,15408 6103,15400 6111,15393 6120,15386 6129,15380 6139,15374 6148,15369 6158,15364 6168,15360 6179,15356 6189,15353 6200,15351 6211,15349 6222,15347 6233,15346 6244,15346 15134,15346 15134,15346 15145,15346 15156,15347 15167,15349 15178,15351 15188,15353 15199,15357 15209,15360 15219,15365 15229,15369 15239,15375 15248,15380 15258,15387 15266,15393 15275,15401 15283,15408 15290,15416 15297,15425 15304,15433 15310,15442 15316,15452 15321,15461 15326,15471 15330,15482 15334,15492 15337,15503 15339,15513 15341,15524 15343,15535 15344,15546 15344,15557 15346,16404 15346,16404 15346,16415 15345,16426 15343,16437 15341,16448 15339,16458 15335,16469 15332,16479 15327,16489 15323,16499 15317,16509 15311,16518 15305,16528 15298,16536 15291,16545 15284,16553 15276,16560 15267,16567 15258,16574 15249,16580 15240,16586 15230,16591 15220,16596 15210,16600 15199,16604 15189,16607 15178,16609 15167,16611 15156,16613 15145,16614 15134,16614 6244,16616 6244,16616 6233,16616 6222,16615 6211,16613 6200,16611 6189,16609 6179,16606 6168,16602 6158,16598 6148,16593 6139,16588 6129,16582 6120,16576 6111,16569 6103,16562 6095,16554 6087,16546 6080,16537 6073,16529 6067,16519 6061,16510 6056,16500 6051,16490 6047,16480 6043,16470 6040,16459 6038,16448 6036,16437 6034,16426 6033,16415 6033,16404 6033,15557 Z"/>
        <text class="TextShape"><tspan class="TextParagraph" font-family="Calibri, sans-serif" font-size="635px" font-weight="400"><tspan class="TextPosition" x="8606" y="16235"><tspan fill="rgb(0,0,0)" stroke="none">MouseListener</tspan></tspan></tspan></text>
       </g>
      </g>
      <g class="com.sun.star.drawing.CustomShape">
       <g id="id6">
        <path fill="rgb(255,255,255)" stroke="none" d="M 3915,8360 L 3915,8360 3915,8349 3916,8338 3918,8327 3920,8316 3922,8305 3925,8295 3929,8284 3933,8274 3938,8264 3943,8254 3949,8245 3955,8236 3962,8227 3969,8219 3977,8211 3985,8203 3993,8196 4002,8189 4011,8183 4021,8177 4030,8172 4040,8167 4050,8163 4061,8159 4071,8156 4082,8154 4093,8152 4104,8150 4115,8149 4126,8149 7725,8149 7725,8149 7736,8149 7747,8150 7758,8152 7769,8154 7779,8156 7790,8160 7800,8163 7810,8168 7820,8172 7830,8178 7839,8183 7849,8190 7857,8196 7866,8204 7874,8211 7881,8219 7888,8228 7895,8236 7901,8245 7907,8255 7912,8264 7917,8274 7921,8285 7925,8295 7928,8306 7930,8316 7932,8327 7934,8338 7935,8349 7935,8360 7937,9207 7937,9207 7937,9218 7936,9229 7934,9240 7932,9251 7930,9261 7926,9272 7923,9282 7918,9292 7914,9302 7908,9312 7902,9321 7896,9331 7889,9339 7882,9348 7875,9356 7867,9363 7858,9370 7849,9377 7840,9383 7831,9389 7821,9394 7811,9399 7801,9403 7790,9407 7780,9410 7769,9412 7758,9414 7747,9416 7736,9417 7725,9417 4126,9419 4126,9419 4115,9419 4104,9418 4093,9416 4082,9414 4071,9412 4061,9409 4050,9405 4040,9401 4030,9396 4021,9391 4011,9385 4002,9379 3993,9372 3985,9365 3977,9357 3969,9349 3962,9340 3955,9332 3949,9322 3943,9313 3938,9303 3933,9293 3929,9283 3925,9273 3922,9262 3920,9251 3918,9240 3916,9229 3915,9218 3915,9207 3915,8360 Z M 3915,8149 L 3915,8149 Z M 7937,9419 L 7937,9419 Z"/>
        <path fill="none" stroke="rgb(0,0,0)" d="M 3915,8360 L 3915,8360 3915,8349 3916,8338 3918,8327 3920,8316 3922,8305 3925,8295 3929,8284 3933,8274 3938,8264 3943,8254 3949,8245 3955,8236 3962,8227 3969,8219 3977,8211 3985,8203 3993,8196 4002,8189 4011,8183 4021,8177 4030,8172 4040,8167 4050,8163 4061,8159 4071,8156 4082,8154 4093,8152 4104,8150 4115,8149 4126,8149 7725,8149 7725,8149 7736,8149 7747,8150 7758,8152 7769,8154 7779,8156 7790,8160 7800,8163 7810,8168 7820,8172 7830,8178 7839,8183 7849,8190 7857,8196 7866,8204 7874,8211 7881,8219 7888,8228 7895,8236 7901,8245 7907,8255 7912,8264 7917,8274 7921,8285 7925,8295 7928,8306 7930,8316 7932,8327 7934,8338 7935,8349 7935,8360 7937,9207 7937,9207 7937,9218 7936,9229 7934,9240 7932,9251 7930,9261 7926,9272 7923,9282 7918,9292 7914,9302 7908,9312 7902,9321 7896,9331 7889,9339 7882,9348 7875,9356 7867,9363 7858,9370 7849,9377 7840,9383 7831,9389 7821,9394 7811,9399 7801,9403 7790,9407 7780,9410 7769,9412 7758,9414 7747,9416 7736,9417 7725,9417 4126,9419 4126,9419 4115,9419 4104,9418 4093,9416 4082,9414 4071,9412 4061,9409 4050,9405 4040,9401 4030,9396 4021,9391 4011,9385 4002,9379 3993,9372 3985,9365 3977,9357 3969,9349 3962,9340 3955,9332 3949,9322 3943,9313 3938,9303 3933,9293 3929,9283 3925,9273 3922,9262 3920,9251 3918,9240 3916,9229 3915,9218 3915,9207 3915,8360 Z"/>
        <text class="TextShape"><tspan class="TextParagraph" font-family="Calibri, sans-serif" font-size="635px" font-weight="400"><tspan class="TextPosition" x="4660" y="9038"><tspan fill="rgb(0,0,0)" stroke="none">TestView</tspan></tspan></tspan></text>
       </g>
      </g>
      <g class="com.sun.star.drawing.CustomShape">
       <g id="id7">
        <path fill="rgb(255,255,255)" stroke="none" d="M 3915,10054 L 3915,10054 3915,10043 3916,10032 3918,10021 3920,10010 3922,9999 3925,9989 3929,9978 3933,9968 3938,9958 3943,9948 3949,9939 3955,9930 3962,9921 3969,9913 3977,9905 3985,9897 3993,9890 4002,9883 4011,9877 4021,9871 4030,9866 4040,9861 4050,9857 4061,9853 4071,9850 4082,9848 4093,9846 4104,9844 4115,9843 4126,9843 7725,9843 7725,9843 7736,9843 7747,9844 7758,9846 7769,9848 7779,9850 7790,9854 7800,9857 7810,9862 7820,9866 7830,9872 7839,9877 7849,9884 7857,9890 7866,9898 7874,9905 7881,9913 7888,9922 7895,9930 7901,9939 7907,9949 7912,9958 7917,9968 7921,9979 7925,9989 7928,10000 7930,10010 7932,10021 7934,10032 7935,10043 7935,10054 7937,10901 7937,10901 7937,10912 7936,10923 7934,10934 7932,10945 7930,10955 7926,10966 7923,10976 7918,10986 7914,10996 7908,11006 7902,11015 7896,11025 7889,11033 7882,11042 7875,11050 7867,11057 7858,11064 7849,11071 7840,11077 7831,11083 7821,11088 7811,11093 7801,11097 7790,11101 7780,11104 7769,11106 7758,11108 7747,11110 7736,11111 7725,11111 4126,11113 4126,11113 4115,11113 4104,11112 4093,11110 4082,11108 4071,11106 4061,11103 4050,11099 4040,11095 4030,11090 4021,11085 4011,11079 4002,11073 3993,11066 3985,11059 3977,11051 3969,11043 3962,11034 3955,11026 3949,11016 3943,11007 3938,10997 3933,10987 3929,10977 3925,10967 3922,10956 3920,10945 3918,10934 3916,10923 3915,10912 3915,10901 3915,10054 Z M 3915,9843 L 3915,9843 Z M 7937,11113 L 7937,11113 Z"/>
        <path fill="none" stroke="rgb(0,0,0)" d="M 3915,10054 L 3915,10054 3915,10043 3916,10032 3918,10021 3920,10010 3922,9999 3925,9989 3929,9978 3933,9968 3938,9958 3943,9948 3949,9939 3955,9930 3962,9921 3969,9913 3977,9905 3985,9897 3993,9890 4002,9883 4011,9877 4021,9871 4030,9866 4040,9861 4050,9857 4061,9853 4071,9850 4082,9848 4093,9846 4104,9844 4115,9843 4126,9843 7725,9843 7725,9843 7736,9843 7747,9844 7758,9846 7769,9848 7779,9850 7790,9854 7800,9857 7810,9862 7820,9866 7830,9872 7839,9877 7849,9884 7857,9890 7866,9898 7874,9905 7881,9913 7888,9922 7895,9930 7901,9939 7907,9949 7912,9958 7917,9968 7921,9979 7925,9989 7928,10000 7930,10010 7932,10021 7934,10032 7935,10043 7935,10054 7937,10901 7937,10901 7937,10912 7936,10923 7934,10934 7932,10945 7930,10955 7926,10966 7923,10976 7918,10986 7914,10996 7908,11006 7902,11015 7896,11025 7889,11033 7882,11042 7875,11050 7867,11057 7858,11064 7849,11071 7840,11077 7831,11083 7821,11088 7811,11093 7801,11097 7790,11101 7780,11104 7769,11106 7758,11108 7747,11110 7736,11111 7725,11111 4126,11113 4126,11113 4115,11113 4104,11112 4093,11110 4082,11108 4071,11106 4061,11103 4050,11099 4040,11095 4030,11090 4021,11085 4011,11079 4002,11073 3993,11066 3985,11059 3977,11051 3969,11043 3962,11034 3955,11026 3949,11016 3943,11007 3938,10997 3933,10987 3929,10977 3925,10967 3922,10956 3920,10945 3918,10934 3916,10923 3915,10912 3915,10901 3915,10054 Z"/>
        <text class="TextShape"><tspan class="TextParagraph" font-family="Calibri, sans-serif" font-size="600px" font-weight="400"><tspan class="TextPosition" x="4247" y="10718"><tspan fill="rgb(0,0,0)" stroke="none">StudentView</tspan></tspan></tspan></text>
       </g>
      </g>
      <g class="com.sun.star.drawing.CustomShape">
       <g id="id8">
        <path fill="rgb(255,255,255)" stroke="none" d="M 3915,11747 L 3915,11747 3915,11736 3916,11725 3918,11714 3920,11703 3922,11692 3925,11682 3929,11671 3933,11661 3938,11651 3943,11641 3949,11632 3955,11623 3962,11614 3969,11606 3977,11598 3985,11590 3993,11583 4002,11576 4011,11570 4021,11564 4030,11559 4040,11554 4050,11550 4061,11546 4071,11543 4082,11541 4093,11539 4104,11537 4115,11536 4126,11536 7725,11536 7725,11536 7736,11536 7747,11537 7758,11539 7769,11541 7779,11543 7790,11547 7800,11550 7810,11555 7820,11559 7830,11565 7839,11570 7849,11577 7857,11583 7866,11591 7874,11598 7881,11606 7888,11615 7895,11623 7901,11632 7907,11642 7912,11651 7917,11661 7921,11672 7925,11682 7928,11693 7930,11703 7932,11714 7934,11725 7935,11736 7935,11747 7937,12594 7937,12594 7937,12605 7936,12616 7934,12627 7932,12638 7930,12648 7926,12659 7923,12669 7918,12679 7914,12689 7908,12699 7902,12708 7896,12718 7889,12726 7882,12735 7875,12743 7867,12750 7858,12757 7849,12764 7840,12770 7831,12776 7821,12781 7811,12786 7801,12790 7790,12794 7780,12797 7769,12799 7758,12801 7747,12803 7736,12804 7725,12804 4126,12806 4126,12806 4115,12806 4104,12805 4093,12803 4082,12801 4071,12799 4061,12796 4050,12792 4040,12788 4030,12783 4021,12778 4011,12772 4002,12766 3993,12759 3985,12752 3977,12744 3969,12736 3962,12727 3955,12719 3949,12709 3943,12700 3938,12690 3933,12680 3929,12670 3925,12660 3922,12649 3920,12638 3918,12627 3916,12616 3915,12605 3915,12594 3915,11747 Z M 3915,11536 L 3915,11536 Z M 7937,12806 L 7937,12806 Z"/>
        <path fill="none" stroke="rgb(0,0,0)" d="M 3915,11747 L 3915,11747 3915,11736 3916,11725 3918,11714 3920,11703 3922,11692 3925,11682 3929,11671 3933,11661 3938,11651 3943,11641 3949,11632 3955,11623 3962,11614 3969,11606 3977,11598 3985,11590 3993,11583 4002,11576 4011,11570 4021,11564 4030,11559 4040,11554 4050,11550 4061,11546 4071,11543 4082,11541 4093,11539 4104,11537 4115,11536 4126,11536 7725,11536 7725,11536 7736,11536 7747,11537 7758,11539 7769,11541 7779,11543 7790,11547 7800,11550 7810,11555 7820,11559 7830,11565 7839,11570 7849,11577 7857,11583 7866,11591 7874,11598 7881,11606 7888,11615 7895,11623 7901,11632 7907,11642 7912,11651 7917,11661 7921,11672 7925,11682 7928,11693 7930,11703 7932,11714 7934,11725 7935,11736 7935,11747 7937,12594 7937,12594 7937,12605 7936,12616 7934,12627 7932,12638 7930,12648 7926,12659 7923,12669 7918,12679 7914,12689 7908,12699 7902,12708 7896,12718 7889,12726 7882,12735 7875,12743 7867,12750 7858,12757 7849,12764 7840,12770 7831,12776 7821,12781 7811,12786 7801,12790 7790,12794 7780,12797 7769,12799 7758,12801 7747,12803 7736,12804 7725,12804 4126,12806 4126,12806 4115,12806 4104,12805 4093,12803 4082,12801 4071,12799 4061,12796 4050,12792 4040,12788 4030,12783 4021,12778 4011,12772 4002,12766 3993,12759 3985,12752 3977,12744 3969,12736 3962,12727 3955,12719 3949,12709 3943,12700 3938,12690 3933,12680 3929,12670 3925,12660 3922,12649 3920,12638 3918,12627 3916,12616 3915,12605 3915,12594 3915,11747 Z"/>
        <text class="TextShape"><tspan class="TextParagraph" font-family="Calibri, sans-serif" font-size="635px" font-weight="400"><tspan class="TextPosition" x="4342" y="12425"><tspan fill="rgb(0,0,0)" stroke="none">ResultView</tspan></tspan></tspan></text>
       </g>
      </g>
      <g class="com.sun.star.drawing.CustomShape">
       <g id="id9">
        <path fill="rgb(255,255,255)" stroke="none" d="M 12594,9842 L 12594,9842 12594,9831 12595,9820 12597,9809 12599,9798 12601,9787 12604,9777 12608,9766 12612,9756 12617,9746 12622,9736 12628,9727 12634,9718 12641,9709 12648,9701 12656,9693 12664,9685 12672,9678 12681,9671 12690,9665 12700,9659 12709,9654 12719,9649 12729,9645 12740,9641 12750,9638 12761,9636 12772,9634 12783,9632 12794,9631 12805,9631 16404,9631 16404,9631 16415,9631 16426,9632 16437,9634 16448,9636 16458,9638 16469,9642 16479,9645 16489,9650 16499,9654 16509,9660 16518,9665 16528,9672 16536,9678 16545,9686 16553,9693 16560,9701 16567,9710 16574,9718 16580,9727 16586,9737 16591,9746 16596,9756 16600,9767 16604,9777 16607,9788 16609,9798 16611,9809 16613,9820 16614,9831 16614,9842 16616,10689 16616,10689 16616,10700 16615,10711 16613,10722 16611,10733 16609,10743 16605,10754 16602,10764 16597,10774 16593,10784 16587,10794 16581,10803 16575,10813 16568,10821 16561,10830 16554,10838 16546,10845 16537,10852 16528,10859 16519,10865 16510,10871 16500,10876 16490,10881 16480,10885 16469,10889 16459,10892 16448,10894 16437,10896 16426,10898 16415,10899 16404,10899 12805,10901 12805,10901 12794,10901 12783,10900 12772,10898 12761,10896 12750,10894 12740,10891 12729,10887 12719,10883 12709,10878 12700,10873 12690,10867 12681,10861 12672,10854 12664,10847 12656,10839 12648,10831 12641,10822 12634,10814 12628,10804 12622,10795 12617,10785 12612,10775 12608,10765 12604,10755 12601,10744 12599,10733 12597,10722 12595,10711 12594,10700 12594,10689 12594,9842 Z M 12594,9631 L 12594,9631 Z M 16616,10901 L 16616,10901 Z"/>
        <path fill="none" stroke="rgb(0,0,0)" d="M 12594,9842 L 12594,9842 12594,9831 12595,9820 12597,9809 12599,9798 12601,9787 12604,9777 12608,9766 12612,9756 12617,9746 12622,9736 12628,9727 12634,9718 12641,9709 12648,9701 12656,9693 12664,9685 12672,9678 12681,9671 12690,9665 12700,9659 12709,9654 12719,9649 12729,9645 12740,9641 12750,9638 12761,9636 12772,9634 12783,9632 12794,9631 12805,9631 16404,9631 16404,9631 16415,9631 16426,9632 16437,9634 16448,9636 16458,9638 16469,9642 16479,9645 16489,9650 16499,9654 16509,9660 16518,9665 16528,9672 16536,9678 16545,9686 16553,9693 16560,9701 16567,9710 16574,9718 16580,9727 16586,9737 16591,9746 16596,9756 16600,9767 16604,9777 16607,9788 16609,9798 16611,9809 16613,9820 16614,9831 16614,9842 16616,10689 16616,10689 16616,10700 16615,10711 16613,10722 16611,10733 16609,10743 16605,10754 16602,10764 16597,10774 16593,10784 16587,10794 16581,10803 16575,10813 16568,10821 16561,10830 16554,10838 16546,10845 16537,10852 16528,10859 16519,10865 16510,10871 16500,10876 16490,10881 16480,10885 16469,10889 16459,10892 16448,10894 16437,10896 16426,10898 16415,10899 16404,10899 12805,10901 12805,10901 12794,10901 12783,10900 12772,10898 12761,10896 12750,10894 12740,10891 12729,10887 12719,10883 12709,10878 12700,10873 12690,10867 12681,10861 12672,10854 12664,10847 12656,10839 12648,10831 12641,10822 12634,10814 12628,10804 12622,10795 12617,10785 12612,10775 12608,10765 12604,10755 12601,10744 12599,10733 12597,10722 12595,10711 12594,10700 12594,10689 12594,9842 Z"/>
        <text class="TextShape"><tspan class="TextParagraph" font-family="Calibri, sans-serif" font-size="635px" font-weight="400"><tspan class="TextPosition" x="13157" y="10520"><tspan fill="rgb(0,0,0)" stroke="none">CheckBox</tspan></tspan></tspan></text>
       </g>
      </g>
      <g class="com.sun.star.drawing.CustomShape">
       <g id="id10">
        <path fill="rgb(255,255,255)" stroke="none" d="M 12594,11324 L 12594,11324 12594,11313 12595,11302 12597,11291 12599,11280 12601,11269 12604,11259 12608,11248 12612,11238 12617,11228 12622,11218 12628,11209 12634,11200 12641,11191 12648,11183 12656,11175 12664,11167 12672,11160 12681,11153 12690,11147 12700,11141 12709,11136 12719,11131 12729,11127 12740,11123 12750,11120 12761,11118 12772,11116 12783,11114 12794,11113 12805,11113 16404,11113 16404,11113 16415,11113 16426,11114 16437,11116 16448,11118 16458,11120 16469,11124 16479,11127 16489,11132 16499,11136 16509,11142 16518,11147 16528,11154 16536,11160 16545,11168 16553,11175 16560,11183 16567,11192 16574,11200 16580,11209 16586,11219 16591,11228 16596,11238 16600,11249 16604,11259 16607,11270 16609,11280 16611,11291 16613,11302 16614,11313 16614,11324 16616,12171 16616,12171 16616,12182 16615,12193 16613,12204 16611,12215 16609,12225 16605,12236 16602,12246 16597,12256 16593,12266 16587,12276 16581,12285 16575,12295 16568,12303 16561,12312 16554,12320 16546,12327 16537,12334 16528,12341 16519,12347 16510,12353 16500,12358 16490,12363 16480,12367 16469,12371 16459,12374 16448,12376 16437,12378 16426,12380 16415,12381 16404,12381 12805,12383 12805,12383 12794,12383 12783,12382 12772,12380 12761,12378 12750,12376 12740,12373 12729,12369 12719,12365 12709,12360 12700,12355 12690,12349 12681,12343 12672,12336 12664,12329 12656,12321 12648,12313 12641,12304 12634,12296 12628,12286 12622,12277 12617,12267 12612,12257 12608,12247 12604,12237 12601,12226 12599,12215 12597,12204 12595,12193 12594,12182 12594,12171 12594,11324 Z M 12594,11113 L 12594,11113 Z M 16616,12383 L 16616,12383 Z"/>
        <path fill="none" stroke="rgb(0,0,0)" d="M 12594,11324 L 12594,11324 12594,11313 12595,11302 12597,11291 12599,11280 12601,11269 12604,11259 12608,11248 12612,11238 12617,11228 12622,11218 12628,11209 12634,11200 12641,11191 12648,11183 12656,11175 12664,11167 12672,11160 12681,11153 12690,11147 12700,11141 12709,11136 12719,11131 12729,11127 12740,11123 12750,11120 12761,11118 12772,11116 12783,11114 12794,11113 12805,11113 16404,11113 16404,11113 16415,11113 16426,11114 16437,11116 16448,11118 16458,11120 16469,11124 16479,11127 16489,11132 16499,11136 16509,11142 16518,11147 16528,11154 16536,11160 16545,11168 16553,11175 16560,11183 16567,11192 16574,11200 16580,11209 16586,11219 16591,11228 16596,11238 16600,11249 16604,11259 16607,11270 16609,11280 16611,11291 16613,11302 16614,11313 16614,11324 16616,12171 16616,12171 16616,12182 16615,12193 16613,12204 16611,12215 16609,12225 16605,12236 16602,12246 16597,12256 16593,12266 16587,12276 16581,12285 16575,12295 16568,12303 16561,12312 16554,12320 16546,12327 16537,12334 16528,12341 16519,12347 16510,12353 16500,12358 16490,12363 16480,12367 16469,12371 16459,12374 16448,12376 16437,12378 16426,12380 16415,12381 16404,12381 12805,12383 12805,12383 12794,12383 12783,12382 12772,12380 12761,12378 12750,12376 12740,12373 12729,12369 12719,12365 12709,12360 12700,12355 12690,12349 12681,12343 12672,12336 12664,12329 12656,12321 12648,12313 12641,12304 12634,12296 12628,12286 12622,12277 12617,12267 12612,12257 12608,12247 12604,12237 12601,12226 12599,12215 12597,12204 12595,12193 12594,12182 12594,12171 12594,11324 Z"/>
        <text class="TextShape"><tspan class="TextParagraph" font-family="Calibri, sans-serif" font-size="600px" font-weight="400"><tspan class="TextPosition" x="12954" y="11988"><tspan fill="rgb(0,0,0)" stroke="none">RadioButton</tspan></tspan></tspan></text>
       </g>
      </g>
      <g class="com.sun.star.drawing.CustomShape">
       <g id="id11">
        <path fill="rgb(255,255,255)" stroke="none" d="M 12594,12805 L 12594,12805 12594,12794 12595,12783 12597,12772 12599,12761 12601,12750 12604,12740 12608,12729 12612,12719 12617,12709 12622,12699 12628,12690 12634,12681 12641,12672 12648,12664 12656,12656 12664,12648 12672,12641 12681,12634 12690,12628 12700,12622 12709,12617 12719,12612 12729,12608 12740,12604 12750,12601 12761,12599 12772,12597 12783,12595 12794,12594 12805,12594 16404,12594 16404,12594 16415,12594 16426,12595 16437,12597 16448,12599 16458,12601 16469,12605 16479,12608 16489,12613 16499,12617 16509,12623 16518,12628 16528,12635 16536,12641 16545,12649 16553,12656 16560,12664 16567,12673 16574,12681 16580,12690 16586,12700 16591,12709 16596,12719 16600,12730 16604,12740 16607,12751 16609,12761 16611,12772 16613,12783 16614,12794 16614,12805 16616,13652 16616,13652 16616,13663 16615,13674 16613,13685 16611,13696 16609,13706 16605,13717 16602,13727 16597,13737 16593,13747 16587,13757 16581,13766 16575,13776 16568,13784 16561,13793 16554,13801 16546,13808 16537,13815 16528,13822 16519,13828 16510,13834 16500,13839 16490,13844 16480,13848 16469,13852 16459,13855 16448,13857 16437,13859 16426,13861 16415,13862 16404,13862 12805,13864 12805,13864 12794,13864 12783,13863 12772,13861 12761,13859 12750,13857 12740,13854 12729,13850 12719,13846 12709,13841 12700,13836 12690,13830 12681,13824 12672,13817 12664,13810 12656,13802 12648,13794 12641,13785 12634,13777 12628,13767 12622,13758 12617,13748 12612,13738 12608,13728 12604,13718 12601,13707 12599,13696 12597,13685 12595,13674 12594,13663 12594,13652 12594,12805 Z M 12594,12594 L 12594,12594 Z M 16616,13864 L 16616,13864 Z"/>
        <path fill="none" stroke="rgb(0,0,0)" d="M 12594,12805 L 12594,12805 12594,12794 12595,12783 12597,12772 12599,12761 12601,12750 12604,12740 12608,12729 12612,12719 12617,12709 12622,12699 12628,12690 12634,12681 12641,12672 12648,12664 12656,12656 12664,12648 12672,12641 12681,12634 12690,12628 12700,12622 12709,12617 12719,12612 12729,12608 12740,12604 12750,12601 12761,12599 12772,12597 12783,12595 12794,12594 12805,12594 16404,12594 16404,12594 16415,12594 16426,12595 16437,12597 16448,12599 16458,12601 16469,12605 16479,12608 16489,12613 16499,12617 16509,12623 16518,12628 16528,12635 16536,12641 16545,12649 16553,12656 16560,12664 16567,12673 16574,12681 16580,12690 16586,12700 16591,12709 16596,12719 16600,12730 16604,12740 16607,12751 16609,12761 16611,12772 16613,12783 16614,12794 16614,12805 16616,13652 16616,13652 16616,13663 16615,13674 16613,13685 16611,13696 16609,13706 16605,13717 16602,13727 16597,13737 16593,13747 16587,13757 16581,13766 16575,13776 16568,13784 16561,13793 16554,13801 16546,13808 16537,13815 16528,13822 16519,13828 16510,13834 16500,13839 16490,13844 16480,13848 16469,13852 16459,13855 16448,13857 16437,13859 16426,13861 16415,13862 16404,13862 12805,13864 12805,13864 12794,13864 12783,13863 12772,13861 12761,13859 12750,13857 12740,13854 12729,13850 12719,13846 12709,13841 12700,13836 12690,13830 12681,13824 12672,13817 12664,13810 12656,13802 12648,13794 12641,13785 12634,13777 12628,13767 12622,13758 12617,13748 12612,13738 12608,13728 12604,13718 12601,13707 12599,13696 12597,13685 12595,13674 12594,13663 12594,13652 12594,12805 Z"/>
        <text class="TextShape"><tspan class="TextParagraph" font-family="Calibri, sans-serif" font-size="635px" font-weight="400"><tspan class="TextPosition" x="13070" y="13483"><tspan fill="rgb(0,0,0)" stroke="none">ScrollPane</tspan></tspan></tspan></text>
       </g>
      </g>
      <g class="com.sun.star.drawing.CustomShape">
       <g id="id12">
        <path fill="rgb(255,255,255)" stroke="none" d="M 12594,8360 L 12594,8360 12594,8349 12595,8338 12597,8327 12599,8316 12601,8305 12604,8295 12608,8284 12612,8274 12617,8264 12622,8254 12628,8245 12634,8236 12641,8227 12648,8219 12656,8211 12664,8203 12672,8196 12681,8189 12690,8183 12700,8177 12709,8172 12719,8167 12729,8163 12740,8159 12750,8156 12761,8154 12772,8152 12783,8150 12794,8149 12805,8149 16404,8149 16404,8149 16415,8149 16426,8150 16437,8152 16448,8154 16458,8156 16469,8160 16479,8163 16489,8168 16499,8172 16509,8178 16518,8183 16528,8190 16536,8196 16545,8204 16553,8211 16560,8219 16567,8228 16574,8236 16580,8245 16586,8255 16591,8264 16596,8274 16600,8285 16604,8295 16607,8306 16609,8316 16611,8327 16613,8338 16614,8349 16614,8360 16616,9207 16616,9207 16616,9218 16615,9229 16613,9240 16611,9251 16609,9261 16605,9272 16602,9282 16597,9292 16593,9302 16587,9312 16581,9321 16575,9331 16568,9339 16561,9348 16554,9356 16546,9363 16537,9370 16528,9377 16519,9383 16510,9389 16500,9394 16490,9399 16480,9403 16469,9407 16459,9410 16448,9412 16437,9414 16426,9416 16415,9417 16404,9417 12805,9419 12805,9419 12794,9419 12783,9418 12772,9416 12761,9414 12750,9412 12740,9409 12729,9405 12719,9401 12709,9396 12700,9391 12690,9385 12681,9379 12672,9372 12664,9365 12656,9357 12648,9349 12641,9340 12634,9332 12628,9322 12622,9313 12617,9303 12612,9293 12608,9283 12604,9273 12601,9262 12599,9251 12597,9240 12595,9229 12594,9218 12594,9207 12594,8360 Z M 12594,8149 L 12594,8149 Z M 16616,9419 L 16616,9419 Z"/>
        <path fill="none" stroke="rgb(0,0,0)" d="M 12594,8360 L 12594,8360 12594,8349 12595,8338 12597,8327 12599,8316 12601,8305 12604,8295 12608,8284 12612,8274 12617,8264 12622,8254 12628,8245 12634,8236 12641,8227 12648,8219 12656,8211 12664,8203 12672,8196 12681,8189 12690,8183 12700,8177 12709,8172 12719,8167 12729,8163 12740,8159 12750,8156 12761,8154 12772,8152 12783,8150 12794,8149 12805,8149 16404,8149 16404,8149 16415,8149 16426,8150 16437,8152 16448,8154 16458,8156 16469,8160 16479,8163 16489,8168 16499,8172 16509,8178 16518,8183 16528,8190 16536,8196 16545,8204 16553,8211 16560,8219 16567,8228 16574,8236 16580,8245 16586,8255 16591,8264 16596,8274 16600,8285 16604,8295 16607,8306 16609,8316 16611,8327 16613,8338 16614,8349 16614,8360 16616,9207 16616,9207 16616,9218 16615,9229 16613,9240 16611,9251 16609,9261 16605,9272 16602,9282 16597,9292 16593,9302 16587,9312 16581,9321 16575,9331 16568,9339 16561,9348 16554,9356 16546,9363 16537,9370 16528,9377 16519,9383 16510,9389 16500,9394 16490,9399 16480,9403 16469,9407 16459,9410 16448,9412 16437,9414 16426,9416 16415,9417 16404,9417 12805,9419 12805,9419 12794,9419 12783,9418 12772,9416 12761,9414 12750,9412 12740,9409 12729,9405 12719,9401 12709,9396 12700,9391 12690,9385 12681,9379 12672,9372 12664,9365 12656,9357 12648,9349 12641,9340 12634,9332 12628,9322 12622,9313 12617,9303 12612,9293 12608,9283 12604,9273 12601,9262 12599,9251 12597,9240 12595,9229 12594,9218 12594,9207 12594,8360 Z"/>
        <text class="TextShape"><tspan class="TextParagraph" font-family="Calibri, sans-serif" font-size="635px" font-weight="400"><tspan class="TextPosition" x="13794" y="9038"><tspan fill="rgb(0,0,0)" stroke="none">Slider</tspan></tspan></tspan></text>
       </g>
      </g>
      <g class="com.sun.star.drawing.CustomShape">
       <g id="id13">
        <path fill="rgb(255,255,255)" stroke="none" d="M 18733,10689 L 18733,10689 18733,10678 18734,10667 18736,10656 18738,10645 18740,10634 18743,10624 18747,10613 18751,10603 18756,10593 18761,10583 18767,10574 18773,10565 18780,10556 18787,10548 18795,10540 18803,10532 18811,10525 18820,10518 18829,10512 18839,10506 18848,10501 18858,10496 18868,10492 18879,10488 18889,10485 18900,10483 18911,10481 18922,10479 18933,10478 18944,10478 21484,10478 21484,10478 21495,10478 21506,10479 21517,10481 21528,10483 21538,10485 21549,10489 21559,10492 21569,10497 21579,10501 21589,10507 21598,10512 21608,10519 21616,10525 21625,10533 21633,10540 21640,10548 21647,10557 21654,10565 21660,10574 21666,10584 21671,10593 21676,10603 21680,10614 21684,10624 21687,10635 21689,10645 21691,10656 21693,10667 21694,10678 21694,10689 21696,11536 21696,11536 21696,11547 21695,11558 21693,11569 21691,11580 21689,11590 21685,11601 21682,11611 21677,11621 21673,11631 21667,11641 21661,11650 21655,11660 21648,11668 21641,11677 21634,11685 21626,11692 21617,11699 21608,11706 21599,11712 21590,11718 21580,11723 21570,11728 21560,11732 21549,11736 21539,11739 21528,11741 21517,11743 21506,11745 21495,11746 21484,11746 18944,11748 18944,11748 18933,11748 18922,11747 18911,11745 18900,11743 18889,11741 18879,11738 18868,11734 18858,11730 18848,11725 18839,11720 18829,11714 18820,11708 18811,11701 18803,11694 18795,11686 18787,11678 18780,11669 18773,11661 18767,11651 18761,11642 18756,11632 18751,11622 18747,11612 18743,11602 18740,11591 18738,11580 18736,11569 18734,11558 18733,11547 18733,11536 18733,10689 Z M 18733,10478 L 18733,10478 Z M 21696,11748 L 21696,11748 Z"/>
        <path fill="none" stroke="rgb(155,187,89)" d="M 18733,10689 L 18733,10689 18733,10678 18734,10667 18736,10656 18738,10645 18740,10634 18743,10624 18747,10613 18751,10603 18756,10593 18761,10583 18767,10574 18773,10565 18780,10556 18787,10548 18795,10540 18803,10532 18811,10525 18820,10518 18829,10512 18839,10506 18848,10501 18858,10496 18868,10492 18879,10488 18889,10485 18900,10483 18911,10481 18922,10479 18933,10478 18944,10478 21484,10478 21484,10478 21495,10478 21506,10479 21517,10481 21528,10483 21538,10485 21549,10489 21559,10492 21569,10497 21579,10501 21589,10507 21598,10512 21608,10519 21616,10525 21625,10533 21633,10540 21640,10548 21647,10557 21654,10565 21660,10574 21666,10584 21671,10593 21676,10603 21680,10614 21684,10624 21687,10635 21689,10645 21691,10656 21693,10667 21694,10678 21694,10689 21696,11536 21696,11536 21696,11547 21695,11558 21693,11569 21691,11580 21689,11590 21685,11601 21682,11611 21677,11621 21673,11631 21667,11641 21661,11650 21655,11660 21648,11668 21641,11677 21634,11685 21626,11692 21617,11699 21608,11706 21599,11712 21590,11718 21580,11723 21570,11728 21560,11732 21549,11736 21539,11739 21528,11741 21517,11743 21506,11745 21495,11746 21484,11746 18944,11748 18944,11748 18933,11748 18922,11747 18911,11745 18900,11743 18889,11741 18879,11738 18868,11734 18858,11730 18848,11725 18839,11720 18829,11714 18820,11708 18811,11701 18803,11694 18795,11686 18787,11678 18780,11669 18773,11661 18767,11651 18761,11642 18756,11632 18751,11622 18747,11612 18743,11602 18740,11591 18738,11580 18736,11569 18734,11558 18733,11547 18733,11536 18733,10689 Z"/>
        <text class="TextShape"><tspan class="TextParagraph" font-family="Calibri, sans-serif" font-size="600px" font-weight="400"><tspan class="TextPosition" x="19103" y="11353"><tspan fill="rgb(0,0,0)" stroke="none">VizState</tspan></tspan></tspan></text>
       </g>
      </g>
      <g class="com.sun.star.drawing.LineShape">
       <g id="id14">
        <path fill="none" stroke="rgb(0,0,0)" d="M 3069,6245 L 3069,11960"/>
       </g>
      </g>
      <g class="com.sun.star.drawing.CustomShape">
       <g id="id15">
        <path fill="none" stroke="rgb(0,0,0)" d="M 3070,11959 L 3619,11960"/>
        <path fill="rgb(0,0,0)" stroke="none" d="M 3917,11961 L 3627,12120 3598,12072 3802,11961 3598,11848 3627,11801 3917,11961 Z"/>
       </g>
      </g>
      <g class="com.sun.star.drawing.CustomShape">
       <g id="id16">
        <path fill="none" stroke="rgb(0,0,0)" d="M 3070,10266 L 3619,10267"/>
        <path fill="rgb(0,0,0)" stroke="none" d="M 3917,10268 L 3627,10427 3598,10379 3802,10268 3598,10155 3627,10108 3917,10268 Z"/>
       </g>
      </g>
      <g class="com.sun.star.drawing.CustomShape">
       <g id="id17">
        <path fill="none" stroke="rgb(0,0,0)" d="M 3070,8573 L 3619,8574"/>
        <path fill="rgb(0,0,0)" stroke="none" d="M 3917,8575 L 3627,8734 3598,8686 3802,8575 3598,8462 3627,8415 3917,8575 Z"/>
       </g>
      </g>
      <g class="com.sun.star.drawing.LineShape">
       <g id="id18">
        <path fill="none" stroke="rgb(0,0,0)" d="M 17463,6245 L 17463,13018"/>
       </g>
      </g>
      <g class="com.sun.star.drawing.CustomShape">
       <g id="id19">
        <path fill="none" stroke="rgb(0,0,0)" d="M 17462,8573 L 16913,8574"/>
        <path fill="rgb(0,0,0)" stroke="none" d="M 16615,8575 L 16905,8415 16934,8463 16730,8575 16934,8686 16905,8734 16615,8575 Z"/>
       </g>
      </g>
      <g class="com.sun.star.drawing.CustomShape">
       <g id="id20">
        <path fill="none" stroke="rgb(0,0,0)" d="M 17462,10054 L 16913,10055"/>
        <path fill="rgb(0,0,0)" stroke="none" d="M 16615,10056 L 16905,9896 16934,9944 16730,10056 16934,10167 16905,10215 16615,10056 Z"/>
       </g>
      </g>
      <g class="com.sun.star.drawing.CustomShape">
       <g id="id21">
        <path fill="none" stroke="rgb(0,0,0)" d="M 17462,11536 L 16913,11537"/>
        <path fill="rgb(0,0,0)" stroke="none" d="M 16615,11538 L 16905,11378 16934,11426 16730,11538 16934,11649 16905,11697 16615,11538 Z"/>
       </g>
      </g>
      <g class="com.sun.star.drawing.CustomShape">
       <g id="id22">
        <path fill="none" stroke="rgb(0,0,0)" d="M 17462,13018 L 16913,13019"/>
        <path fill="rgb(0,0,0)" stroke="none" d="M 16615,13020 L 16905,12860 16934,12908 16730,13020 16934,13131 16905,13179 16615,13020 Z"/>
       </g>
      </g>
      <g class="com.sun.star.drawing.LineShape">
       <g id="id23">
        <path fill="none" stroke="rgb(247,150,70)" d="M 2646,14500 L 2646,8997"/>
       </g>
      </g>
      <g class="com.sun.star.drawing.CustomShape">
       <g id="id24">
        <path fill="none" stroke="rgb(247,150,70)" d="M 2645,8996 L 3617,8998"/>
        <path fill="rgb(247,150,70)" stroke="none" d="M 3915,8998 L 3625,9157 3596,9109 3800,8998 3596,8885 3625,8838 3915,8998 Z"/>
       </g>
      </g>
      <g class="com.sun.star.drawing.CustomShape">
       <g id="id25">
        <path fill="none" stroke="rgb(247,150,70)" d="M 2645,10689 L 3617,10691"/>
        <path fill="rgb(247,150,70)" stroke="none" d="M 3915,10691 L 3625,10850 3596,10802 3800,10691 3596,10578 3625,10531 3915,10691 Z"/>
       </g>
      </g>
      <g class="com.sun.star.drawing.CustomShape">
       <g id="id26">
        <path fill="none" stroke="rgb(247,150,70)" d="M 2645,12383 L 3617,12385"/>
        <path fill="rgb(247,150,70)" stroke="none" d="M 3915,12385 L 3625,12544 3596,12496 3800,12385 3596,12272 3625,12225 3915,12385 Z"/>
       </g>
      </g>
      <g class="com.sun.star.drawing.CustomShape">
       <g id="id27">
        <path fill="none" stroke="rgb(247,150,70)" d="M 17882,8996 L 16910,8998"/>
        <path fill="rgb(247,150,70)" stroke="none" d="M 16612,8998 L 16902,8838 16931,8886 16727,8998 16931,9110 16902,9157 16612,8998 Z"/>
       </g>
      </g>
      <g class="com.sun.star.drawing.CustomShape">
       <g id="id28">
        <path fill="none" stroke="rgb(247,150,70)" d="M 17882,10478 L 16910,10480"/>
        <path fill="rgb(247,150,70)" stroke="none" d="M 16612,10480 L 16902,10320 16931,10368 16727,10480 16931,10592 16902,10639 16612,10480 Z"/>
       </g>
      </g>
      <g class="com.sun.star.drawing.CustomShape">
       <g id="id29">
        <path fill="none" stroke="rgb(247,150,70)" d="M 17882,11959 L 16910,11961"/>
        <path fill="rgb(247,150,70)" stroke="none" d="M 16612,11961 L 16902,11801 16931,11849 16727,11961 16931,12073 16902,12120 16612,11961 Z"/>
       </g>
      </g>
      <g class="com.sun.star.drawing.CustomShape">
       <g id="id30">
        <path fill="none" stroke="rgb(247,150,70)" d="M 17882,13441 L 16910,13443"/>
        <path fill="rgb(247,150,70)" stroke="none" d="M 16612,13443 L 16902,13283 16931,13331 16727,13443 16931,13555 16902,13602 16612,13443 Z"/>
       </g>
      </g>
      <g class="com.sun.star.drawing.LineShape">
       <g id="id31">
        <path fill="none" stroke="rgb(247,150,70)" d="M 17886,14500 L 17886,8997"/>
       </g>
      </g>
      <g class="com.sun.star.drawing.LineShape">
       <g id="id32">
        <path fill="none" stroke="rgb(247,150,70)" d="M 2646,14500 L 17886,14500"/>
       </g>
      </g>
      <g class="com.sun.star.drawing.LineShape">
       <g id="id33">
        <path fill="none" stroke="rgb(247,150,70)" d="M 10689,14500 L 10689,15347"/>
       </g>
      </g>
      <g class="com.sun.star.drawing.CustomShape">
       <g id="id34">
        <path fill="none" stroke="rgb(128,100,162)" d="M 12594,8784 L 12310,8784"/>
        <path fill="none" stroke="rgb(128,100,162)" d="M 12097,8784 L 11813,8784"/>
        <path fill="none" stroke="rgb(128,100,162)" d="M 11600,8784 L 11316,8785"/>
        <path fill="none" stroke="rgb(128,100,162)" d="M 11103,8785 L 10819,8785"/>
        <path fill="none" stroke="rgb(128,100,162)" d="M 10606,8785 L 10322,8785"/>
        <path fill="none" stroke="rgb(128,100,162)" d="M 10109,8785 L 9825,8785"/>
        <path fill="none" stroke="rgb(128,100,162)" d="M 9612,8785 L 9328,8785"/>
        <path fill="none" stroke="rgb(128,100,162)" d="M 9115,8785 L 8831,8786"/>
        <path fill="none" stroke="rgb(128,100,162)" d="M 8618,8786 L 8334,8786"/>
        <path fill="rgb(128,100,162)" stroke="none" d="M 7937,8786 L 8227,8626 8256,8675 8052,8786 8256,8898 8227,8945 7937,8786 Z"/>
       </g>
      </g>
      <g class="com.sun.star.drawing.CustomShape">
       <g id="id35">
        <path fill="none" stroke="rgb(128,100,162)" d="M 12594,10263 L 12323,10177"/>
        <path fill="none" stroke="rgb(128,100,162)" d="M 12120,10112 L 11850,10026"/>
        <path fill="none" stroke="rgb(128,100,162)" d="M 11647,9962 L 11376,9875"/>
        <path fill="none" stroke="rgb(128,100,162)" d="M 11173,9811 L 10903,9725"/>
        <path fill="none" stroke="rgb(128,100,162)" d="M 10700,9660 L 10429,9574"/>
        <path fill="none" stroke="rgb(128,100,162)" d="M 10226,9509 L 9955,9423"/>
        <path fill="none" stroke="rgb(128,100,162)" d="M 9752,9359 L 9482,9273"/>
        <path fill="none" stroke="rgb(128,100,162)" d="M 9279,9208 L 9008,9122"/>
        <path fill="none" stroke="rgb(128,100,162)" d="M 8805,9057 L 8535,8971"/>
        <path fill="none" stroke="rgb(128,100,162)" d="M 8332,8907 L 8221,8871"/>
        <path fill="rgb(128,100,162)" stroke="none" d="M 7937,8781 L 8262,8717 8275,8772 8046,8816 8207,8984 8165,9021 7937,8781 Z"/>
       </g>
      </g>
      <g class="com.sun.star.drawing.CustomShape">
       <g id="id36">
        <path fill="none" stroke="rgb(128,100,162)" d="M 12594,11747 L 12354,11595"/>
        <path fill="none" stroke="rgb(128,100,162)" d="M 12175,11480 L 11935,11328"/>
        <path fill="none" stroke="rgb(128,100,162)" d="M 11755,11213 L 11516,11061"/>
        <path fill="none" stroke="rgb(128,100,162)" d="M 11336,10947 L 11096,10794"/>
        <path fill="none" stroke="rgb(128,100,162)" d="M 10917,10680 L 10677,10527"/>
        <path fill="none" stroke="rgb(128,100,162)" d="M 10497,10413 L 10258,10261"/>
        <path fill="none" stroke="rgb(128,100,162)" d="M 10078,10146 L 9838,9994"/>
        <path fill="none" stroke="rgb(128,100,162)" d="M 9659,9879 L 9419,9727"/>
        <path fill="none" stroke="rgb(128,100,162)" d="M 9239,9613 L 9000,9460"/>
        <path fill="none" stroke="rgb(128,100,162)" d="M 8820,9346 L 8580,9193"/>
        <path fill="none" stroke="rgb(128,100,162)" d="M 8401,9079 L 8188,8944"/>
        <path fill="rgb(128,100,162)" stroke="none" d="M 7937,8784 L 8267,8805 8266,8861 8034,8846 8146,9050 8096,9074 7937,8784 Z"/>
       </g>
      </g>
      <g class="com.sun.star.drawing.CustomShape">
       <g id="id37">
        <path fill="none" stroke="rgb(128,100,162)" d="M 12594,13227 L 12350,13083"/>
        <path fill="none" stroke="rgb(128,100,162)" d="M 12166,12974 L 11922,12830"/>
        <path fill="none" stroke="rgb(128,100,162)" d="M 11738,12721 L 11494,12577"/>
        <path fill="none" stroke="rgb(128,100,162)" d="M 11310,12468 L 11066,12324"/>
        <path fill="none" stroke="rgb(128,100,162)" d="M 10883,12216 L 10638,12071"/>
        <path fill="none" stroke="rgb(128,100,162)" d="M 10455,11963 L 10210,11818"/>
        <path fill="none" stroke="rgb(128,100,162)" d="M 10027,11710 L 9782,11565"/>
        <path fill="none" stroke="rgb(128,100,162)" d="M 9599,11457 L 9354,11313"/>
        <path fill="none" stroke="rgb(128,100,162)" d="M 9171,11204 L 8927,11060"/>
        <path fill="none" stroke="rgb(128,100,162)" d="M 8743,10951 L 8499,10807"/>
        <path fill="none" stroke="rgb(128,100,162)" d="M 8315,10699 L 8193,10626"/>
        <path fill="rgb(128,100,162)" stroke="none" d="M 7937,10475 L 8268,10485 8268,10541 8036,10533 8155,10734 8105,10760 7937,10475 Z"/>
       </g>
      </g>
      <g class="com.sun.star.drawing.CustomShape">
       <g id="id38">
        <path fill="none" stroke="rgb(128,100,162)" d="M 12594,13226 L 12317,13163"/>
        <path fill="none" stroke="rgb(128,100,162)" d="M 12109,13116 L 11832,13053"/>
        <path fill="none" stroke="rgb(128,100,162)" d="M 11625,13006 L 11348,12943"/>
        <path fill="none" stroke="rgb(128,100,162)" d="M 11140,12896 L 10863,12833"/>
        <path fill="none" stroke="rgb(128,100,162)" d="M 10655,12786 L 10378,12723"/>
        <path fill="none" stroke="rgb(128,100,162)" d="M 10171,12675 L 9894,12613"/>
        <path fill="none" stroke="rgb(128,100,162)" d="M 9686,12565 L 9409,12502"/>
        <path fill="none" stroke="rgb(128,100,162)" d="M 9201,12455 L 8925,12392"/>
        <path fill="none" stroke="rgb(128,100,162)" d="M 8717,12345 L 8440,12282"/>
        <path fill="none" stroke="rgb(128,100,162)" d="M 8232,12235 L 8227,12234"/>
        <path fill="rgb(128,100,162)" stroke="none" d="M 7937,12168 L 8255,12077 8273,12130 8049,12193 8223,12348 8184,12388 7937,12168 Z"/>
       </g>
      </g>
      <g class="com.sun.star.drawing.CustomShape">
       <g id="id39">
        <path fill="none" stroke="rgb(0,0,0)" d="M 20849,12806 L 19242,12808"/>
        <path fill="rgb(0,0,0)" stroke="none" d="M 18944,12808 L 19234,12648 19263,12696 19059,12808 19263,12920 19234,12967 18944,12808 Z"/>
       </g>
      </g>
      <g class="com.sun.star.drawing.CustomShape">
       <g id="id40">
        <path fill="none" stroke="rgb(247,150,70)" d="M 20849,13441 L 19242,13443"/>
        <path fill="rgb(247,150,70)" stroke="none" d="M 18944,13443 L 19234,13283 19263,13331 19059,13443 19263,13555 19234,13602 18944,13443 Z"/>
       </g>
      </g>
      <g class="com.sun.star.drawing.CustomShape">
       <g id="id41">
        <path fill="none" stroke="rgb(128,100,162)" d="M 20849,14076 L 20565,14076"/>
        <path fill="none" stroke="rgb(128,100,162)" d="M 20352,14077 L 20068,14077"/>
        <path fill="none" stroke="rgb(128,100,162)" d="M 19855,14077 L 19571,14077"/>
        <path fill="none" stroke="rgb(128,100,162)" d="M 19358,14078 L 19242,14078"/>
        <path fill="rgb(128,100,162)" stroke="none" d="M 18944,14078 L 19234,13918 19263,13966 19059,14078 19263,14190 19234,14237 18944,14078 Z"/>
       </g>
      </g>
      <g class="com.sun.star.drawing.CustomShape">
       <g id="id42">
        <path fill="rgb(255,255,255)" stroke="none" d="M 18733,5185 L 18733,5185 18733,5174 18734,5163 18736,5152 18738,5141 18740,5130 18743,5120 18747,5109 18751,5099 18756,5089 18761,5079 18767,5070 18773,5061 18780,5052 18787,5044 18795,5036 18803,5028 18811,5021 18820,5014 18829,5008 18839,5002 18848,4997 18858,4992 18868,4988 18879,4984 18889,4981 18900,4979 18911,4977 18922,4975 18933,4974 18944,4974 21484,4974 21484,4974 21495,4974 21506,4975 21517,4977 21528,4979 21538,4981 21549,4985 21559,4988 21569,4993 21579,4997 21589,5003 21598,5008 21608,5015 21616,5021 21625,5029 21633,5036 21640,5044 21647,5053 21654,5061 21660,5070 21666,5080 21671,5089 21676,5099 21680,5110 21684,5120 21687,5131 21689,5141 21691,5152 21693,5163 21694,5174 21694,5185 21696,6032 21696,6032 21696,6043 21695,6054 21693,6065 21691,6076 21689,6086 21685,6097 21682,6107 21677,6117 21673,6127 21667,6137 21661,6146 21655,6156 21648,6164 21641,6173 21634,6181 21626,6188 21617,6195 21608,6202 21599,6208 21590,6214 21580,6219 21570,6224 21560,6228 21549,6232 21539,6235 21528,6237 21517,6239 21506,6241 21495,6242 21484,6242 18944,6244 18944,6244 18933,6244 18922,6243 18911,6241 18900,6239 18889,6237 18879,6234 18868,6230 18858,6226 18848,6221 18839,6216 18829,6210 18820,6204 18811,6197 18803,6190 18795,6182 18787,6174 18780,6165 18773,6157 18767,6147 18761,6138 18756,6128 18751,6118 18747,6108 18743,6098 18740,6087 18738,6076 18736,6065 18734,6054 18733,6043 18733,6032 18733,5185 Z M 18733,4974 L 18733,4974 Z M 21696,6244 L 21696,6244 Z"/>
        <path fill="none" stroke="rgb(192,80,77)" d="M 18733,5185 L 18733,5185 18733,5174 18734,5163 18736,5152 18738,5141 18740,5130 18743,5120 18747,5109 18751,5099 18756,5089 18761,5079 18767,5070 18773,5061 18780,5052 18787,5044 18795,5036 18803,5028 18811,5021 18820,5014 18829,5008 18839,5002 18848,4997 18858,4992 18868,4988 18879,4984 18889,4981 18900,4979 18911,4977 18922,4975 18933,4974 18944,4974 21484,4974 21484,4974 21495,4974 21506,4975 21517,4977 21528,4979 21538,4981 21549,4985 21559,4988 21569,4993 21579,4997 21589,5003 21598,5008 21608,5015 21616,5021 21625,5029 21633,5036 21640,5044 21647,5053 21654,5061 21660,5070 21666,5080 21671,5089 21676,5099 21680,5110 21684,5120 21687,5131 21689,5141 21691,5152 21693,5163 21694,5174 21694,5185 21696,6032 21696,6032 21696,6043 21695,6054 21693,6065 21691,6076 21689,6086 21685,6097 21682,6107 21677,6117 21673,6127 21667,6137 21661,6146 21655,6156 21648,6164 21641,6173 21634,6181 21626,6188 21617,6195 21608,6202 21599,6208 21590,6214 21580,6219 21570,6224 21560,6228 21549,6232 21539,6235 21528,6237 21517,6239 21506,6241 21495,6242 21484,6242 18944,6244 18944,6244 18933,6244 18922,6243 18911,6241 18900,6239 18889,6237 18879,6234 18868,6230 18858,6226 18848,6221 18839,6216 18829,6210 18820,6204 18811,6197 18803,6190 18795,6182 18787,6174 18780,6165 18773,6157 18767,6147 18761,6138 18756,6128 18751,6118 18747,6108 18743,6098 18740,6087 18738,6076 18736,6065 18734,6054 18733,6043 18733,6032 18733,5185 Z"/>
        <text class="TextShape"><tspan class="TextParagraph" font-family="Calibri, sans-serif" font-size="635px" font-weight="400"><tspan class="TextPosition" x="19279" y="5863"><tspan fill="rgb(0,0,0)" stroke="none">Parser</tspan></tspan></tspan></text>
       </g>
      </g>
      <g class="com.sun.star.drawing.CustomShape">
       <g id="id43">
        <path fill="none" stroke="rgb(128,100,162)" d="M 20214,8996 L 20214,9280"/>
        <path fill="none" stroke="rgb(128,100,162)" d="M 20215,9493 L 20215,9777"/>
        <path fill="none" stroke="rgb(128,100,162)" d="M 20215,9990 L 20216,10180"/>
        <path fill="rgb(128,100,162)" stroke="none" d="M 20216,10478 L 20056,10188 20104,10159 20216,10363 20328,10159 20375,10188 20216,10478 Z"/>
       </g>
      </g>
      <g class="com.sun.star.drawing.CustomShape">
       <g id="id44">
        <path fill="none" stroke="rgb(192,80,77)" d="M 20214,6244 L 20216,7428"/>
        <path fill="rgb(192,80,77)" stroke="none" d="M 20216,7726 L 20056,7436 20104,7407 20216,7611 20328,7407 20375,7436 20216,7726 Z"/>
       </g>
      </g>
      <g class="com.sun.star.drawing.CustomShape">
       <g id="id45">
        <path fill="none" stroke="rgb(192,80,77)" d="M 20849,14711 L 19242,14713"/>
        <path fill="rgb(192,80,77)" stroke="none" d="M 18944,14713 L 19234,14553 19263,14601 19059,14713 19263,14825 19234,14872 18944,14713 Z"/>
       </g>
      </g>
      <g class="com.sun.star.drawing.CustomShape">
       <g id="id46">
        <text class="TextShape"><tspan class="TextParagraph" font-family="Calibri, sans-serif" font-size="635px" font-weight="400"><tspan class="TextPosition" x="21522" y="14836"><tspan fill="rgb(0,0,0)" stroke="none">produces</tspan></tspan></tspan></text>
       </g>
      </g>
      <g class="com.sun.star.drawing.CustomShape">
       <g id="id47">
        <text class="TextShape"><tspan class="TextParagraph" font-family="Calibri, sans-serif" font-size="635px" font-weight="400"><tspan class="TextPosition" x="21522" y="13566"><tspan fill="rgb(0,0,0)" stroke="none">implements</tspan></tspan></tspan></text>
       </g>
      </g>
      <g class="com.sun.star.drawing.CustomShape">
       <g id="id48">
        <text class="TextShape"><tspan class="TextParagraph" font-family="Calibri, sans-serif" font-size="635px" font-weight="400"><tspan class="TextPosition" x="21522" y="14201"><tspan fill="rgb(0,0,0)" stroke="none">has a</tspan></tspan></tspan></text>
       </g>
      </g>
      <g class="com.sun.star.drawing.CustomShape">
       <g id="id49">
        <text class="TextShape"><tspan class="TextParagraph" font-family="Calibri, sans-serif" font-size="635px" font-weight="400"><tspan class="TextPosition" x="21522" y="12931"><tspan fill="rgb(0,0,0)" stroke="none">extends</tspan></tspan></tspan></text>
       </g>
      </g>
     </g>
    </g>
   </g>
  </g>
 </g>
</svg>